# xmcd CD database file
#
# Track frame offsets:
#	150
#	33766
#	60703
#	89959
#	123678
#	151173
#	176383
#	206130
#	223510
#	237577
#	257948
#
# Disc length: 3901 seconds
#
# Revision: 1
# Processed by: cddbd v1.5.1PL2 Copyright (c) Steve Scherf et al.
# Submitted via: CDex 1.51
#
DISCID=a30f3b0b
DTITLE=Sergio di Natale - Muzzola
DYEAR=2006
DGENRE=Jazz
TTITLE0=Sunday Evening
TTITLE1=Pitagora
TTITLE2=Footprints in 100/8
TTITLE3=Giochi di Luglio
TTITLE4=Super Pippo
TTITLE5=On Green Dolphin Street
TTITLE6=Eleven Groove
TTITLE7=In 36 Ore
TTITLE8=Palestina
TTITLE9=Bienvenido a Cuba
TTITLE10=Muzzola
EXTD=YEAR: 2006
EXTT0=
EXTT1=
EXTT2=
EXTT3=
EXTT4=
EXTT5=
EXTT6=
EXTT7=
EXTT8=
EXTT9=
EXTT10=
PLAYORDER=
